<svg width="59" height="99" viewBox="0 0 59 99" fill="none" xmlns="http://www.w3.org/2000/svg">
<path d="M29.5 1.50009C32.2817 1.50009 34.5 3.71749 34.5 6.40776C34.5 9.09803 32.2817 11.3154 29.5 11.3154C26.7183 11.3154 24.5 9.09803 24.5 6.40776C24.5 3.71749 26.7183 1.50009 29.5 1.50009Z" stroke="#B9AED5" stroke-width="3"/>
<path d="M29 99L29 12" stroke="#B9AED5" stroke-width="3"/>
<path d="M52.5 48.5001C55.2817 48.5001 57.5 50.7175 57.5 53.4078C57.5 56.098 55.2817 58.3154 52.5 58.3154C49.7183 58.3154 47.5 56.098 47.5 53.4078C47.5 50.7175 49.7183 48.5001 52.5 48.5001Z" stroke="#B9AED5" stroke-width="3"/>
<path d="M52 99V59" stroke="#B9AED5" stroke-width="3"/>
<path d="M6.5 48.5001C9.28173 48.5001 11.5 50.7175 11.5 53.4078C11.5 56.098 9.28173 58.3154 6.5 58.3154C3.71827 58.3154 1.5 56.098 1.5 53.4078C1.5 50.7175 3.71827 48.5001 6.5 48.5001Z" stroke="#B9AED5" stroke-width="3"/>
<path d="M6 99L6 59" stroke="#B9AED5" stroke-width="3"/>
</svg>
